<mxfile host="www.draw.io" modified="2020-01-29T14:35:37.511Z" agent="Mozilla/5.0 (Macintosh; Intel Mac OS X 10_14_6) AppleWebKit/537.36 (KHTML, like Gecko) Chrome/79.0.3945.130 Safari/537.36" etag="07IuvVV_akgcfFUy_IpY" version="12.6.1" type="github">
  <diagram id="6k0vc4grjT5wOSjdKA2w" name="Page-1">
    <mxGraphModel dx="2262" dy="852" grid="1" gridSize="10" guides="1" tooltips="1" connect="1" arrows="1" fold="1" page="1" pageScale="1" pageWidth="850" pageHeight="1100" math="0" shadow="0">
      <root>
        <mxCell id="0"/>
        <mxCell id="1" parent="0"/>
        <mxCell id="fQZwNXvaRt0sDYvZvLLN-5" value="" style="group" vertex="1" connectable="0" parent="1">
          <mxGeometry x="-830" y="500" width="120" height="100" as="geometry"/>
        </mxCell>
        <mxCell id="fQZwNXvaRt0sDYvZvLLN-4" value="" style="fontColor=#0066CC;verticalAlign=top;verticalLabelPosition=bottom;labelPosition=center;align=center;html=1;outlineConnect=0;fillColor=#CCCCCC;strokeColor=#6881B3;gradientColor=none;gradientDirection=north;strokeWidth=2;shape=mxgraph.networks.pc;" vertex="1" parent="fQZwNXvaRt0sDYvZvLLN-5">
          <mxGeometry width="120" height="100" as="geometry"/>
        </mxCell>
        <mxCell id="fQZwNXvaRt0sDYvZvLLN-1" value="" style="shape=image;html=1;verticalAlign=top;verticalLabelPosition=bottom;labelBackgroundColor=#ffffff;imageAspect=0;aspect=fixed;image=https://cdn4.iconfinder.com/data/icons/logos-brands-5/24/postman-128.png" vertex="1" parent="fQZwNXvaRt0sDYvZvLLN-5">
          <mxGeometry x="50" y="20" width="40" height="40" as="geometry"/>
        </mxCell>
      </root>
    </mxGraphModel>
  </diagram>
</mxfile>
